<mxfile host="app.diagrams.net" modified="2022-08-30T16:32:09.905Z" agent="5.0 (Windows NT 10.0; Win64; x64) AppleWebKit/537.36 (KHTML, like Gecko) Chrome/104.0.0.0 Safari/537.36" etag="8YxSVaWpF6uklhazsaZU" version="20.2.7" type="github">
  <diagram id="T7VliG0jcOkoTlYSBavd" name="Страница 1">
    <mxGraphModel dx="1221" dy="684" grid="1" gridSize="10" guides="1" tooltips="1" connect="1" arrows="1" fold="1" page="1" pageScale="1" pageWidth="827" pageHeight="1169" math="0" shadow="0">
      <root>
        <mxCell id="0" />
        <mxCell id="1" parent="0" />
        <mxCell id="EM_Sd7DyhCy7Pq4Helxj-9" value="" style="rounded=1;whiteSpace=wrap;html=1;align=center;labelPosition=center;verticalLabelPosition=middle;verticalAlign=middle;" parent="1" vertex="1">
          <mxGeometry x="130" y="760" width="530" height="250" as="geometry" />
        </mxCell>
        <mxCell id="2Wrb3w29L2Q073Srsq8A-14" style="edgeStyle=orthogonalEdgeStyle;rounded=0;orthogonalLoop=1;jettySize=auto;html=1;exitX=1;exitY=0.5;exitDx=0;exitDy=0;entryX=1;entryY=0.25;entryDx=0;entryDy=0;fontSize=18;" edge="1" parent="1" source="EM_Sd7DyhCy7Pq4Helxj-6" target="2Wrb3w29L2Q073Srsq8A-11">
          <mxGeometry relative="1" as="geometry">
            <Array as="points">
              <mxPoint x="660" y="480" />
              <mxPoint x="730" y="480" />
              <mxPoint x="730" y="112" />
            </Array>
          </mxGeometry>
        </mxCell>
        <mxCell id="2Wrb3w29L2Q073Srsq8A-15" style="edgeStyle=orthogonalEdgeStyle;rounded=0;orthogonalLoop=1;jettySize=auto;html=1;exitX=1;exitY=0.5;exitDx=0;exitDy=0;entryX=1;entryY=0.5;entryDx=0;entryDy=0;fontSize=18;" edge="1" parent="1" source="EM_Sd7DyhCy7Pq4Helxj-6" target="EM_Sd7DyhCy7Pq4Helxj-9">
          <mxGeometry relative="1" as="geometry">
            <Array as="points">
              <mxPoint x="660" y="620" />
              <mxPoint x="730" y="620" />
              <mxPoint x="730" y="885" />
            </Array>
          </mxGeometry>
        </mxCell>
        <mxCell id="EM_Sd7DyhCy7Pq4Helxj-6" value="v" style="rounded=1;whiteSpace=wrap;html=1;align=center;labelPosition=center;verticalLabelPosition=middle;verticalAlign=middle;" parent="1" vertex="1">
          <mxGeometry x="130" y="370" width="530" height="370" as="geometry" />
        </mxCell>
        <mxCell id="EM_Sd7DyhCy7Pq4Helxj-12" style="edgeStyle=orthogonalEdgeStyle;rounded=0;orthogonalLoop=1;jettySize=auto;html=1;exitX=0.5;exitY=1;exitDx=0;exitDy=0;entryX=0;entryY=0.5;entryDx=0;entryDy=0;fontSize=14;" parent="1" source="EM_Sd7DyhCy7Pq4Helxj-2" target="EM_Sd7DyhCy7Pq4Helxj-5" edge="1">
          <mxGeometry relative="1" as="geometry" />
        </mxCell>
        <mxCell id="EM_Sd7DyhCy7Pq4Helxj-2" value="GetUserNameUseCase" style="ellipse;whiteSpace=wrap;html=1;" parent="1" vertex="1">
          <mxGeometry x="230" y="620" width="160" height="80" as="geometry" />
        </mxCell>
        <mxCell id="EM_Sd7DyhCy7Pq4Helxj-14" style="edgeStyle=orthogonalEdgeStyle;rounded=0;orthogonalLoop=1;jettySize=auto;html=1;exitX=0.5;exitY=1;exitDx=0;exitDy=0;entryX=1;entryY=0.5;entryDx=0;entryDy=0;fontSize=14;" parent="1" source="EM_Sd7DyhCy7Pq4Helxj-4" target="EM_Sd7DyhCy7Pq4Helxj-5" edge="1">
          <mxGeometry relative="1" as="geometry" />
        </mxCell>
        <mxCell id="EM_Sd7DyhCy7Pq4Helxj-4" value="SaveUserNameUseCase" style="ellipse;whiteSpace=wrap;html=1;" parent="1" vertex="1">
          <mxGeometry x="400" y="620" width="160" height="80" as="geometry" />
        </mxCell>
        <mxCell id="EM_Sd7DyhCy7Pq4Helxj-5" value="MainActivity" style="rounded=0;whiteSpace=wrap;html=1;" parent="1" vertex="1">
          <mxGeometry x="330" y="770" width="120" height="200" as="geometry" />
        </mxCell>
        <mxCell id="EM_Sd7DyhCy7Pq4Helxj-7" value="&lt;font style=&quot;font-size: 18px;&quot;&gt;domain&lt;/font&gt;" style="text;html=1;strokeColor=none;fillColor=none;align=center;verticalAlign=middle;whiteSpace=wrap;rounded=0;fontStyle=1;fontSize=14;" parent="1" vertex="1">
          <mxGeometry x="160" y="690" width="60" height="30" as="geometry" />
        </mxCell>
        <mxCell id="EM_Sd7DyhCy7Pq4Helxj-10" value="&lt;font style=&quot;font-size: 18px;&quot;&gt;presentation&lt;/font&gt;" style="text;html=1;strokeColor=none;fillColor=none;align=center;verticalAlign=middle;whiteSpace=wrap;rounded=0;fontStyle=1;fontSize=14;" parent="1" vertex="1">
          <mxGeometry x="170" y="960" width="60" height="30" as="geometry" />
        </mxCell>
        <mxCell id="2Wrb3w29L2Q073Srsq8A-8" style="edgeStyle=orthogonalEdgeStyle;rounded=0;orthogonalLoop=1;jettySize=auto;html=1;exitX=0.5;exitY=1;exitDx=0;exitDy=0;entryX=0.5;entryY=0;entryDx=0;entryDy=0;" edge="1" parent="1" source="2Wrb3w29L2Q073Srsq8A-2" target="EM_Sd7DyhCy7Pq4Helxj-2">
          <mxGeometry relative="1" as="geometry" />
        </mxCell>
        <mxCell id="2Wrb3w29L2Q073Srsq8A-9" style="edgeStyle=orthogonalEdgeStyle;rounded=0;orthogonalLoop=1;jettySize=auto;html=1;exitX=0.5;exitY=1;exitDx=0;exitDy=0;" edge="1" parent="1" source="2Wrb3w29L2Q073Srsq8A-2" target="EM_Sd7DyhCy7Pq4Helxj-4">
          <mxGeometry relative="1" as="geometry" />
        </mxCell>
        <mxCell id="2Wrb3w29L2Q073Srsq8A-2" value="UserRepositoryInterface" style="rounded=1;whiteSpace=wrap;html=1;" vertex="1" parent="1">
          <mxGeometry x="312.5" y="470" width="165" height="60" as="geometry" />
        </mxCell>
        <mxCell id="2Wrb3w29L2Q073Srsq8A-3" value="UserName model" style="rounded=1;whiteSpace=wrap;html=1;" vertex="1" parent="1">
          <mxGeometry x="520" y="410" width="120" height="60" as="geometry" />
        </mxCell>
        <mxCell id="2Wrb3w29L2Q073Srsq8A-4" value="SaveUserNameParam model" style="rounded=1;whiteSpace=wrap;html=1;" vertex="1" parent="1">
          <mxGeometry x="510" y="480" width="130" height="60" as="geometry" />
        </mxCell>
        <mxCell id="2Wrb3w29L2Q073Srsq8A-16" style="edgeStyle=orthogonalEdgeStyle;rounded=0;orthogonalLoop=1;jettySize=auto;html=1;exitX=0;exitY=0.5;exitDx=0;exitDy=0;entryX=0;entryY=0.5;entryDx=0;entryDy=0;fontSize=18;" edge="1" parent="1" source="2Wrb3w29L2Q073Srsq8A-11" target="EM_Sd7DyhCy7Pq4Helxj-9">
          <mxGeometry relative="1" as="geometry">
            <Array as="points">
              <mxPoint x="60" y="185" />
              <mxPoint x="60" y="885" />
            </Array>
          </mxGeometry>
        </mxCell>
        <mxCell id="2Wrb3w29L2Q073Srsq8A-11" value="" style="rounded=1;whiteSpace=wrap;html=1;" vertex="1" parent="1">
          <mxGeometry x="130" y="40" width="530" height="290" as="geometry" />
        </mxCell>
        <mxCell id="2Wrb3w29L2Q073Srsq8A-12" value="&lt;font style=&quot;font-size: 18px;&quot;&gt;data&lt;/font&gt;" style="text;html=1;strokeColor=none;fillColor=none;align=center;verticalAlign=middle;whiteSpace=wrap;rounded=0;fontStyle=1;fontSize=14;" vertex="1" parent="1">
          <mxGeometry x="160" y="280" width="60" height="30" as="geometry" />
        </mxCell>
        <mxCell id="2Wrb3w29L2Q073Srsq8A-13" value="&lt;font style=&quot;font-size: 14px;&quot;&gt;UserRepositoryImpl - implementation&lt;/font&gt;" style="rounded=1;whiteSpace=wrap;html=1;fontSize=18;" vertex="1" parent="1">
          <mxGeometry x="180" y="80" width="190" height="60" as="geometry" />
        </mxCell>
      </root>
    </mxGraphModel>
  </diagram>
</mxfile>
